<svg width="100" height="100" viewBox="0 0 100 100" fill="none" xmlns="http://www.w3.org/2000/svg">
<path d="M73.8438 17.0391C75.75 16.1172 77.0703 14.1719 77.0703 11.9141C77.0703 10.4056 76.4711 8.95901 75.4045 7.89239C74.3379 6.82578 72.8912 6.22656 71.3828 6.22656C69.8744 6.22656 68.4278 6.82578 67.3611 7.89239C66.2945 8.95901 65.6953 10.4056 65.6953 11.9141C65.6953 14.2031 67.0469 16.1641 68.9922 17.0703C66.7422 29.2578 63.2891 38.3281 50.4375 40.2656C50.4375 40.2656 53.8984 57.5703 70.0859 57.5703C86.2734 57.5703 87.9141 40.4375 87.9141 40.4375C74.7813 41.1094 73.6719 24.6016 73.8438 17.0391Z" fill="#F19534"/>
<path d="M27.1406 17.0391C25.2344 16.1172 23.9141 14.1719 23.9141 11.9141C23.9141 10.4056 24.5133 8.95901 25.5799 7.89239C26.6465 6.82578 28.0931 6.22656 29.6016 6.22656C31.11 6.22656 32.5566 6.82578 33.6232 7.89239C34.6898 8.95901 35.2891 10.4056 35.2891 11.9141C35.2891 14.2031 33.9375 16.1641 31.9922 17.0703C34.2422 29.2578 37.6953 38.3281 50.5469 40.2656C50.5469 40.2656 47.0859 57.5703 30.8984 57.5703C14.7109 57.5703 13.0781 40.4453 13.0781 40.4453C26.2031 41.1094 27.3125 24.6016 27.1406 17.0391Z" fill="#F19534"/>
<path d="M69.8672 57.5703C69.9375 57.5703 70.0078 57.5781 70.0781 57.5781C74.5391 57.5781 77.8906 56.2734 80.4062 54.3906L69.8672 57.5703Z" fill="#FFCA28"/>
<path d="M93.1562 13.1719C90.5547 12.8203 88.0703 15.2969 87.6172 18.6875C87.3359 20.8047 87.9062 22.7813 89.0078 24.0547L87.1328 31.8281C87.1328 31.8281 84.2656 50.1953 69.7812 53.8203C58.2031 56.7187 54.0078 35.5234 52.9922 28.9766C55.1953 27.8828 56.7187 25.6172 56.7187 22.9844C56.7187 19.2891 53.7266 16.2969 50.0312 16.2969C46.3359 16.2969 43.3437 19.2891 43.3437 22.9844C43.3437 25.6328 44.8906 27.9219 47.1328 29C46.3281 35.4609 42.7812 55.9531 30.2812 53.8125C17.5937 51.6328 12.0547 30.2656 10.7734 24.4531C12.2969 23.2031 13.1484 21 12.8359 18.6328C12.3828 15.2344 9.69531 12.7969 6.83593 13.1797C3.97656 13.5625 2.03124 16.625 2.48437 20.0156C2.81249 22.4844 4.32812 24.4453 6.22656 25.1875L16.1641 86.9297C16.1641 86.9297 24.8359 93.7812 50.0312 93.7812C75.2266 93.7812 83.8984 86.9297 83.8984 86.9297L93.8594 25.0234C95.4687 24.1797 96.7344 22.2813 97.0469 19.9531C97.5078 16.5547 95.7656 13.5234 93.1562 13.1719Z" fill="#FFCA28"/>
<path d="M50.3438 78.0547C54.5463 78.0547 57.9531 73.9938 57.9531 68.9844C57.9531 63.975 54.5463 59.9141 50.3438 59.9141C46.1412 59.9141 42.7344 63.975 42.7344 68.9844C42.7344 73.9938 46.1412 78.0547 50.3438 78.0547Z" fill="#1B3A4B"/>
<path d="M50.3437 62.1562C50.6406 62.4844 50.9062 63.0859 50.3437 64.2578C49.7812 65.4297 46.75 67.0156 46.1953 67.3359C45.6406 67.6641 45.2734 67.5156 45.1016 67.3828C44.2812 66.7266 44.5937 65.2422 45.125 64.3359C46.2656 62.375 48.6797 60.3516 50.3437 62.1562Z" fill="#006466"/>
<path d="M49.7813 72.3672C48.9219 72.7812 46.1016 74.0391 47.0313 75.5312C47.5781 76.4141 48.711 76.7891 49.75 76.8359C50.7891 76.8828 51.8125 76.5547 52.7344 76.0781C57.1094 73.8125 57.461 67.8594 56.6094 67.4062C55.7344 66.9375 55.1406 68.1484 54.6875 68.6641C53.3097 70.2071 51.6429 71.4652 49.7813 72.3672Z" fill="#144552"/>
<path d="M92.2578 61.5625C93.4766 54.8203 88.9453 53.1328 88.9453 53.1328C88.9453 53.1328 86.0234 52.6016 84.6484 60.1875C83.2734 67.7656 86.1953 68.2969 86.1953 68.2969C86.1953 68.2969 91.0312 68.3047 92.2578 61.5625Z" fill="#1B3A4B"/>
<path d="M90.2422 55.4375C91.3047 56.8594 90.0469 58.9609 88.0078 60.3594C87.4063 60.7734 86.6094 60.6172 86.4922 60.2734C86.1641 59.2891 86.3047 58.1719 86.7422 57.2266C88.0391 54.3906 89.7031 54.7187 90.2422 55.4375Z" fill="#006466"/>
<path d="M7.62501 61.7656C6.39845 55.0312 10.9375 53.3359 10.9375 53.3359C10.9375 53.3359 13.8594 52.8047 15.2344 60.3906C16.6094 67.9687 13.6875 68.5 13.6875 68.5C13.6875 68.5 8.84376 68.5078 7.62501 61.7656Z" fill="#1B3A4B"/>
<path d="M12.3281 55.625C13.375 56.4062 12.9453 57.4297 12.1562 58.1406C11.2578 58.9609 10.5703 59.8594 9.80468 60.7891C9.6875 60.9297 9.55468 61.0859 9.36718 61.125C9.00781 61.2031 8.71875 60.8359 8.60156 60.4844C8.26562 59.5 8.32812 58.3437 8.82812 57.4375C10.25 54.8516 11.9219 55.3203 12.3281 55.625Z" fill="#006466"/>
<path d="M78.1172 68.0937C77.5781 71.1641 75.1172 73.2969 72.6094 72.8594C70.1016 72.4219 69.7578 69.8047 70.2969 66.7344C70.8359 63.6641 72.0469 61.3125 74.5469 61.75C77.0547 62.1875 78.6563 65.0312 78.1172 68.0937Z" fill="#4D194D"/>
<path d="M23.7734 68.0937C24.3125 71.1641 26.7734 73.2969 29.2812 72.8594C31.7891 72.4219 32.1328 69.8047 31.5937 66.7344C31.0547 63.6641 29.8437 61.3125 27.3437 61.75C24.8437 62.1875 23.2422 65.0312 23.7734 68.0937Z" fill="#4D194D"/>
<path d="M27.4063 66.0469C26.8359 66.6875 25.4453 67.9766 24.9531 66.9922C24.2813 65.6484 25.2109 63.6172 26.2734 62.9453C27.3359 62.2734 28.2031 62.8047 28.3516 63.4063C28.5313 64.1719 27.9141 65.4688 27.4063 66.0469Z" fill="#FFA8A4" fill-opacity="0.1"/>
<path d="M71.8594 68.0078C71.0859 67.8906 71 65.2266 73.0781 63.1328C74.0703 62.1328 75.4922 63.3203 75.1328 64.9219C74.7891 66.4453 73.2734 68.2266 71.8594 68.0078Z" fill="#FFA8A4" fill-opacity="0.1"/>
<path d="M85.2734 76.7266C80.5938 79.0703 69.8594 85.3125 50.0391 85.3125C30.2188 85.3125 19.4844 79.0703 14.8047 76.7266C14.8047 76.7266 13.125 77.625 13.125 78.5625V85.7578C13.125 86.7187 13.6328 87.6016 14.4609 88.0938C18.1172 90.25 29.2578 95.3438 50.0469 95.3438C70.8359 95.3438 81.9766 90.25 85.6328 88.0938C86.0393 87.8541 86.3763 87.5126 86.6106 87.1029C86.8448 86.6933 86.9683 86.2297 86.9688 85.7578V78.5625C86.9531 77.625 85.2734 76.7266 85.2734 76.7266Z" fill="#FFCA28"/>
<path d="M30.9375 86.5937C33.125 87.0234 33.7891 87.2109 33.6406 88.4297C33.3359 90.8281 28.3594 90.2578 25.4141 89.4844C19.3281 87.8828 18.0938 86.1953 18.0938 84.6875C18.0938 83.3047 19.1563 83.1406 20.7969 83.7188C22.7578 84.4141 25.7891 85.5859 30.9375 86.5937Z" fill="#FFF59D"/>
<path d="M85.2734 78.3047C85.2734 78.3047 72.3281 85.6328 50.0391 85.6328C27.75 85.6328 14.8047 78.3047 14.8047 78.3047" stroke="#F19534" stroke-width="4" stroke-miterlimit="10" stroke-linecap="round"/>
<path d="M21.0703 38.7266C25.2266 35.7578 27.461 30.4375 27.6563 21.9688C27.6719 21.2031 27.8906 20.9766 28.3047 20.9297C28.9688 20.8594 29.0781 21.4609 29.0703 21.8906C28.8828 31.0312 27.7188 36.7422 23.1094 39.9609C22.8828 40.1172 21.2656 41.1016 20.5781 40.4219C19.7578 39.625 20.8047 38.9141 21.0703 38.7266Z" fill="#FFCA28"/>
<path d="M24.875 12.1406C24.7422 10.7266 25.0703 8.17968 28.7812 7.02343C29.8672 6.6875 30.5391 7.21875 30.6641 7.63281C30.9766 8.66406 30.0703 9.07031 29.6562 9.20312C26.8047 10.125 26.6641 11.5469 26.0781 12.4531C25.4922 13.3594 24.9219 12.5703 24.875 12.1406Z" fill="#FFCA28"/>
<path d="M61.1094 36.8516C64.8672 33.5156 67.3594 29.7891 69 21.3047C69.1484 20.5547 69.3672 20.3516 69.7734 20.3672C70.4375 20.3828 70.4688 21 70.3984 21.4219C69.0078 30.4687 67.6875 33.0469 63.0547 38.1797C62.5313 38.7578 61.2578 39.2812 60.5391 38.6797C59.8906 38.1406 60.6406 37.2734 61.1094 36.8516Z" fill="#FFCA28"/>
<path d="M66.6406 12.2109C66.5078 10.7969 66.8359 8.25 70.5469 7.09375C71.6328 6.75781 72.3047 7.28906 72.4297 7.70312C72.7422 8.73437 71.8359 9.14062 71.4219 9.27343C68.5703 10.1953 68.4297 11.6172 67.8437 12.5234C67.2656 13.4297 66.6875 12.6406 66.6406 12.2109Z" fill="#FFCA28"/>
<path d="M24.6797 55.9531C15.6016 51.8359 12.9297 41.0938 11.5078 36.4297C11.3203 35.8125 11.4141 35.2266 12.0312 35.0391C12.6484 34.8516 13.0156 35.25 13.2109 35.8672C14.2422 39.25 18.25 50.5469 26.5234 53.7578C27.125 53.9922 28.0625 54.5625 27.5547 55.5391C27.2187 56.1719 26.1406 56.6172 24.6797 55.9531Z" fill="#FFF59D"/>
<path d="M9.90626 19.2422C9.46876 18.3359 9.28907 17.4766 6.90626 16.4844C6.3047 16.2344 5.90626 15.6797 6.07032 15.0547C6.23439 14.4297 6.85939 13.9609 7.76564 14.1172C10.7109 14.625 11.3516 17.6172 11.4766 18.6562C11.5938 19.6562 10.3516 20.1484 9.90626 19.2422Z" fill="#FFF59D"/>
<path d="M75.6797 55.9531C84.7578 51.8359 87.4297 41.0938 88.8516 36.4297C89.039 35.8125 88.9453 35.2266 88.3281 35.0391C87.7109 34.8516 87.3437 35.25 87.1484 35.8672C86.1172 39.25 82.1094 50.5469 73.8359 53.7578C73.2344 53.9922 72.2969 54.5625 72.8047 55.5391C73.1406 56.1719 74.2187 56.6172 75.6797 55.9531Z" fill="#FFF59D"/>
<path d="M90.4531 19.2422C90.8906 18.3359 91.0703 17.4766 93.4531 16.4844C94.0547 16.2344 94.4531 15.6797 94.2891 15.0547C94.125 14.4297 93.5 13.9609 92.5937 14.1172C89.6484 14.625 89.0078 17.6172 88.8828 18.6562C88.7656 19.6562 90.0156 20.1484 90.4531 19.2422Z" fill="#FFF59D"/>
<path d="M46.3906 23.0859C46.8672 22.1094 47.7031 20.7734 50.4297 20.2109C51.4766 19.9922 51.7813 19.5391 51.6875 18.8516C51.5 17.4219 49.7187 17.5234 48.7578 17.75C45.5547 18.5 44.8438 21.3438 44.7109 22.4688C44.5781 23.5391 45.9219 24.0625 46.3906 23.0859Z" fill="#FFF59D"/>
</svg>
